# Created by Open3D 
# object name: large_drawer_pull
# number of vertices: 8
# number of triangles: 12
v 0.275 0 0
vn -0.4472 -0.0079857 0.894399
v 0.275 0.56 0
vn -0.894313 0.0159699 0.447156
v 0.275 0 -0.01
vn -0.894313 -0.0159699 -0.447156
v 0.275 0.56 -0.01
vn -0.4472 0.0079857 -0.894399
v 0.285 0.56 0
vn 0.4472 0.0079857 0.894399
v 0.285 0 0
vn 0.894313 -0.0159699 0.447156
v 0.285 0.56 -0.01
vn 0.894313 0.0159699 -0.447156
v 0.285 0 -0.01
vn 0.4472 -0.0079857 -0.894399
f 1//1 2//2 3//3
f 2//2 4//4 3//3
f 5//5 6//6 7//7
f 6//6 8//8 7//7
f 7//7 8//8 4//4
f 8//8 3//3 4//4
f 5//5 7//7 2//2
f 7//7 4//4 2//2
f 8//8 6//6 3//3
f 6//6 1//1 3//3
f 6//6 5//5 1//1
f 5//5 2//2 1//1
