# Created by Open3D 
# object name: large_drawer
# number of vertices: 16
# number of triangles: 28
v 0 0 0
vn -0.861196 -0.422909 0.281939
v 0 0.56 0
vn -0.882633 0.433436 0.181912
v 0 0 -0.03
vn -0.212009 -0.104111 -0.971706
v 0 0.56 -0.03
vn -0.054445 0.0267364 -0.998159
v 0.275 0.56 0
vn 0.861196 0.422909 0.281939
v 0.275 0 0
vn 0.882633 -0.433436 0.181912
v 0.275 0.56 -0.03
vn 0.212009 0.104111 -0.971706
v 0.275 0 -0.03
vn 0.054445 -0.0267364 -0.998159
v 0.005 0.555 0
vn 0.848417 -0.408783 0.336281
v 0.005 0.005 0
vn 0.878869 0.423455 0.219717
v 0.27 0.005 0
vn -0.848417 0.408783 0.336281
v 0.27 0.555 0
vn -0.878869 -0.423455 0.219717
v 0.27 0.555 -0.025
vn -0.0471053 -0.0226962 0.998632
v 0.005 0.555 -0.025
vn 0.184672 -0.0889785 0.978764
v 0.27 0.005 -0.025
vn -0.184672 0.0889785 0.978764
v 0.005 0.005 -0.025
vn 0.0471053 0.0226962 0.998632
f 1//1 2//2 3//3
f 2//2 4//4 3//3
f 5//5 6//6 7//7
f 6//6 8//8 7//7
f 7//7 8//8 4//4
f 8//8 3//3 4//4
f 5//5 7//7 2//2
f 7//7 4//4 2//2
f 9//9 2//2 10//10
f 2//2 1//1 10//10
f 10//10 1//1 11//11
f 1//1 6//6 11//11
f 11//11 6//6 12//12
f 6//6 5//5 12//12
f 12//12 5//5 9//9
f 5//5 2//2 9//9
f 13//13 12//12 14//14
f 12//12 9//9 14//14
f 11//11 15//15 10//10
f 15//15 16//16 10//10
f 15//15 13//13 16//16
f 13//13 14//14 16//16
f 11//11 12//12 15//15
f 12//12 13//13 15//15
f 9//9 10//10 14//14
f 10//10 16//16 14//14
f 8//8 6//6 3//3
f 6//6 1//1 3//3
