# Created by Open3D 
# object name: lid_hinge_l
# number of vertices: 224
# number of triangles: 448
v 0.28 -0.03 0.25
vn 0.347923 -0.803394 -0.483226
v 0.255 -0.03 0.25
vn -0.484842 -0.558097 -0.673392
v 0.28 -0.015 0.25
vn 0.483992 0.560252 -0.672212
v 0.255 -0.015 0.25
vn -0.349099 0.801898 -0.48486
v 0.28 -0.03 0.268
vn 0.940021 -0.341109 0.00225344
v 0.28 -0.015 0.268
vn 0.807292 0.590149 0.00193526
v 0.255 -0.015 0.268
vn -0.940021 0.341109 0.00225344
v 0.255 -0.03 0.268
vn -0.807292 -0.590149 0.00193526
v 0.268 -0.015 0.28
vn 0.0210537 0.330984 0.943402
v 0.268 -0.03 0.28
vn 0.0182651 -0.57429 0.818448
v 0.269046 -0.03 0.279954
vn 0.0668798 -0.390451 0.918191
v 0.269046 -0.015 0.279954
vn 0.0920444 0.424166 0.900895
v 0.270084 -0.03 0.279818
vn 0.144152 -0.425592 0.89336
v 0.270084 -0.015 0.279818
vn 0.170078 0.425744 0.888716
v 0.271106 -0.03 0.279591
vn 0.221291 -0.427143 0.876686
v 0.271106 -0.015 0.279591
vn 0.246691 0.427286 0.869811
v 0.272104 -0.03 0.279276
vn 0.296625 -0.428651 0.853389
v 0.272104 -0.015 0.279276
vn 0.321312 0.428792 0.844331
v 0.273071 -0.03 0.278876
vn 0.369585 -0.430111 0.823658
v 0.273071 -0.015 0.278876
vn 0.393359 0.430249 0.812499
v 0.274 -0.03 0.278392
vn 0.439627 -0.431513 0.787734
v 0.274 -0.015 0.278392
vn 0.462341 0.431636 0.774552
v 0.274883 -0.03 0.27783
vn 0.506265 -0.432836 0.745888
v 0.274883 -0.015 0.27783
vn 0.527723 0.432955 0.730793
v 0.275713 -0.03 0.277193
vn 0.568963 -0.434081 0.698466
v 0.275713 -0.015 0.277193
vn 0.589006 0.434198 0.681575
v 0.276485 -0.03 0.276485
vn 0.627281 -0.435242 0.645819
v 0.276485 -0.015 0.276485
vn 0.645784 0.435343 0.627247
v 0.277193 -0.03 0.275713
vn 0.680807 -0.436297 0.588342
v 0.277193 -0.015 0.275713
vn 0.697599 0.436395 0.568257
v 0.27783 -0.03 0.274883
vn 0.729109 -0.437254 0.526507
v 0.27783 -0.015 0.274883
vn 0.744088 0.437336 0.505044
v 0.278392 -0.03 0.274
vn 0.771875 -0.438093 0.460743
v 0.278392 -0.015 0.274
vn 0.784928 0.438168 0.438061
v 0.278876 -0.03 0.273071
vn 0.808778 -0.438816 0.391558
v 0.278876 -0.015 0.273071
vn 0.819799 0.438878 0.367853
v 0.279276 -0.03 0.272104
vn 0.839546 -0.439417 0.319491
v 0.279276 -0.015 0.272104
vn 0.848465 0.439469 0.294913
v 0.279591 -0.03 0.271106
vn 0.863975 -0.439892 0.245036
v 0.279591 -0.015 0.271106
vn 0.870722 0.43993 0.219785
v 0.279818 -0.03 0.270084
vn 0.881879 -0.440235 0.168769
v 0.279818 -0.015 0.270084
vn 0.886408 0.440253 0.14303
v 0.279954 -0.03 0.269046
vn 0.893134 -0.440436 0.0912515
v 0.279954 -0.015 0.269046
vn 0.895403 0.440454 0.0652199
v 0.265 -0.03 0.268
vn 0.551847 -0.833906 0.00805139
v 0.265 -0.015 0.268
vn 0.91373 0.406102 -0.0133312
v 0.26501 -0.03 0.268218
vn 0.550558 -0.833831 -0.0401399
v 0.26501 -0.015 0.268218
vn 0.549058 0.833898 -0.0561111
v 0.265038 -0.03 0.268434
vn 0.545241 -0.83365 -0.0879737
v 0.265038 -0.015 0.268434
vn 0.542256 0.833781 -0.10377
v 0.265085 -0.03 0.268647
vn 0.535927 -0.83336 -0.135254
v 0.265085 -0.015 0.268647
vn 0.531474 0.833563 -0.150691
v 0.265151 -0.03 0.268855
vn 0.522621 -0.832995 -0.181622
v 0.265151 -0.015 0.268855
vn 0.516721 0.833267 -0.196637
v 0.265234 -0.03 0.269057
vn 0.505408 -0.83254 -0.226806
v 0.265234 -0.015 0.269057
vn 0.498137 0.83288 -0.241184
v 0.265335 -0.03 0.26925
vn 0.484435 -0.832 -0.270367
v 0.265335 -0.015 0.26925
vn 0.475859 0.832391 -0.28405
v 0.265452 -0.03 0.269434
vn 0.459826 -0.831357 -0.312099
v 0.265452 -0.015 0.269434
vn 0.449994 0.831815 -0.324945
v 0.265585 -0.03 0.269607
vn 0.431698 -0.830644 -0.351664
v 0.265585 -0.015 0.269607
vn 0.420691 0.831161 -0.36358
v 0.265732 -0.03 0.269768
vn 0.400244 -0.829844 -0.388797
v 0.265732 -0.015 0.269768
vn 0.388168 0.830413 -0.399674
v 0.265893 -0.03 0.269915
vn 0.365701 -0.828969 -0.423171
v 0.265893 -0.015 0.269915
vn 0.352657 0.829601 -0.432892
v 0.266066 -0.03 0.270048
vn 0.328244 -0.828041 -0.454537
v 0.266066 -0.015 0.270048
vn 0.314314 0.828692 -0.463116
v 0.26625 -0.03 0.270165
vn 0.288124 -0.827013 -0.482736
v 0.26625 -0.015 0.270165
vn 0.273441 0.827744 -0.489969
v 0.266443 -0.03 0.270266
vn 0.245653 -0.825973 -0.507368
v 0.266443 -0.015 0.270266
vn 0.230347 0.82672 -0.513298
v 0.266645 -0.03 0.270349
vn 0.201103 -0.824858 -0.528363
v 0.266645 -0.015 0.270349
vn 0.185262 0.825653 -0.532894
v 0.266853 -0.03 0.270415
vn 0.154708 -0.823711 -0.545496
v 0.266853 -0.015 0.270415
vn 0.138441 0.824524 -0.54863
v 0.267066 -0.03 0.270462
vn 0.106872 -0.822523 -0.5586
v 0.267066 -0.015 0.270462
vn 0.090423 0.823366 -0.560261
v 0.267282 -0.03 0.27049
vn 0.0580218 -0.821308 -0.567527
v 0.267282 -0.015 0.27049
vn 0.0273657 0.926371 -0.375618
v 0.2675 -0.03 0.2705
vn 0.00848461 -0.812129 -0.583417
v 0.2675 -0.015 0.2705
vn -0.00848474 0.812141 -0.583399
v 0.267718 -0.03 0.27049
vn -0.0273663 -0.926381 -0.375592
v 0.267718 -0.015 0.27049
vn -0.0580235 0.821315 -0.567517
v 0.267934 -0.03 0.270462
vn -0.090423 -0.823366 -0.560261
v 0.267934 -0.015 0.270462
vn -0.106872 0.822523 -0.5586
v 0.268147 -0.03 0.270415
vn -0.138441 -0.824524 -0.54863
v 0.268147 -0.015 0.270415
vn -0.154708 0.823711 -0.545496
v 0.268355 -0.03 0.270349
vn -0.185262 -0.825653 -0.532894
v 0.268355 -0.015 0.270349
vn -0.201103 0.824858 -0.528363
v 0.268557 -0.03 0.270266
vn -0.230341 -0.826713 -0.513311
v 0.268557 -0.015 0.270266
vn -0.245644 0.825957 -0.5074
v 0.26875 -0.03 0.270165
vn -0.273438 -0.827734 -0.489988
v 0.26875 -0.015 0.270165
vn -0.288128 0.827023 -0.482716
v 0.268934 -0.03 0.270048
vn -0.314325 -0.828707 -0.463081
v 0.268934 -0.015 0.270048
vn -0.328252 0.828046 -0.454522
v 0.269107 -0.03 0.269915
vn -0.352654 -0.829605 -0.432888
v 0.269107 -0.015 0.269915
vn -0.365701 0.828969 -0.423171
v 0.269268 -0.03 0.269768
vn -0.388171 -0.83041 -0.399677
v 0.269268 -0.015 0.269768
vn -0.40024 0.829848 -0.388793
v 0.269415 -0.03 0.269607
vn -0.420691 -0.831161 -0.36358
v 0.269415 -0.015 0.269607
vn -0.431701 0.830641 -0.351666
v 0.269548 -0.03 0.269434
vn -0.449994 -0.831815 -0.324945
v 0.269548 -0.015 0.269434
vn -0.459826 0.831357 -0.312099
v 0.269665 -0.03 0.26925
vn -0.475859 -0.832391 -0.28405
v 0.269665 -0.015 0.26925
vn -0.484435 0.832 -0.270367
v 0.269766 -0.03 0.269057
vn -0.498137 -0.83288 -0.241184
v 0.269766 -0.015 0.269057
vn -0.505408 0.83254 -0.226806
v 0.269849 -0.03 0.268855
vn -0.516721 -0.833267 -0.196637
v 0.269849 -0.015 0.268855
vn -0.522621 0.832995 -0.181622
v 0.269915 -0.03 0.268647
vn -0.531474 -0.833563 -0.150691
v 0.269915 -0.015 0.268647
vn -0.535927 0.83336 -0.135254
v 0.269962 -0.03 0.268434
vn -0.542256 -0.833781 -0.10377
v 0.269962 -0.015 0.268434
vn -0.545241 0.83365 -0.0879737
v 0.26999 -0.03 0.268218
vn -0.549058 -0.833898 -0.0561111
v 0.26999 -0.015 0.268218
vn -0.550558 0.833831 -0.0401399
v 0.27 -0.03 0.268
vn -0.91373 -0.406102 -0.0133312
v 0.27 -0.015 0.268
vn -0.551847 0.833906 0.00805139
v 0.26999 -0.03 0.267782
vn -0.912121 -0.404491 0.0664975
v 0.26999 -0.015 0.267782
vn -0.909808 0.404482 0.0929694
v 0.269962 -0.03 0.267566
vn -0.904973 -0.399633 0.146003
v 0.269962 -0.015 0.267566
vn -0.900338 0.399635 0.172287
v 0.269915 -0.03 0.267353
vn -0.892199 -0.391503 0.225179
v 0.269915 -0.015 0.267353
vn -0.885268 0.391517 0.251028
v 0.269849 -0.03 0.267145
vn -0.873694 -0.380068 0.303657
v 0.269849 -0.015 0.267145
vn -0.864477 0.380057 0.328991
v 0.269766 -0.03 0.266943
vn -0.0470549 -0.998669 0.0211163
v 0.269766 -0.015 0.266943
vn -0.837871 0.365242 0.405673
v 0.269665 -0.03 0.26675
vn -0.69189 -0.610062 0.38615
v 0.269665 -0.015 0.26675
vn -0.0438498 0.998695 0.0261749
v 0.269548 -0.03 0.266566
vn -0.645235 -0.626002 0.437942
v 0.269548 -0.015 0.266566
vn -0.63222 0.625999 0.456533
v 0.269415 -0.03 0.266393
vn -0.597012 -0.638035 0.486301
v 0.269415 -0.015 0.266393
vn -0.582617 0.638031 0.503463
v 0.269268 -0.03 0.266232
vn -0.547288 -0.646461 0.531568
v 0.269268 -0.015 0.266232
vn -0.531568 0.646461 0.547288
v 0.269107 -0.03 0.266085
vn -0.496062 -0.65148 0.574018
v 0.269107 -0.015 0.266085
vn -0.479162 0.651497 0.588179
v 0.268934 -0.03 0.265952
vn -0.443287 -0.65325 0.613808
v 0.268934 -0.015 0.265952
vn -0.425227 0.65324 0.626467
v 0.26875 -0.03 0.265835
vn -0.388707 -0.65178 0.651222
v 0.26875 -0.015 0.265835
vn -0.369582 0.651769 0.662274
v 0.268557 -0.03 0.265734
vn -0.332211 -0.647031 0.686284
v 0.268557 -0.015 0.265734
vn -0.312094 0.647046 0.69565
v 0.268355 -0.03 0.265651
vn -0.273583 -0.638928 0.718974
v 0.268355 -0.015 0.265651
vn -0.252576 0.638928 0.72662
v 0.268147 -0.03 0.265585
vn -0.212535 -0.627235 0.74927
v 0.268147 -0.015 0.265585
vn -0.190625 0.627224 0.755151
v 0.267934 -0.03 0.265538
vn -0.1487 -0.611635 0.77704
v 0.267934 -0.015 0.265538
vn -0.126017 0.61165 0.781027
v 0.267718 -0.03 0.26551
vn -0.0819141 -0.591808 0.801906
v 0.267718 -0.015 0.26551
vn -0.058541 0.591802 0.803955
v 0.2675 -0.03 0.2655
vn -0.000361376 -0.999691 0.0248477
v 0.2675 -0.015 0.2655
vn 0.0119755 0.567256 0.823454
v 0.267282 -0.03 0.26551
vn 0.0585362 -0.591791 0.803963
v 0.267282 -0.015 0.26551
vn 0.00252377 0.999692 0.0247079
v 0.267066 -0.03 0.265538
vn 0.126017 -0.61165 0.781027
v 0.267066 -0.015 0.265538
vn 0.1487 0.611635 0.77704
v 0.266853 -0.03 0.265585
vn 0.190625 -0.627224 0.755151
v 0.266853 -0.015 0.265585
vn 0.212535 0.627235 0.74927
v 0.266645 -0.03 0.265651
vn 0.252576 -0.638928 0.72662
v 0.266645 -0.015 0.265651
vn 0.273583 0.638928 0.718974
v 0.266443 -0.03 0.265734
vn 0.312108 -0.647041 0.695648
v 0.266443 -0.015 0.265734
vn 0.332235 0.647041 0.686264
v 0.26625 -0.03 0.265835
vn 0.36959 -0.651784 0.662254
v 0.26625 -0.015 0.265835
vn 0.388698 0.651766 0.651241
v 0.266066 -0.03 0.265952
vn 0.425198 -0.653232 0.626493
v 0.266066 -0.015 0.265952
vn 0.443267 0.653257 0.613815
v 0.265893 -0.03 0.266085
vn 0.479162 -0.651497 0.588179
v 0.265893 -0.015 0.266085
vn 0.496062 0.65148 0.574018
v 0.265732 -0.03 0.266232
vn 0.531568 -0.646461 0.547288
v 0.265732 -0.015 0.266232
vn 0.547288 0.646461 0.531568
v 0.265585 -0.03 0.266393
vn 0.582617 -0.638031 0.503463
v 0.265585 -0.015 0.266393
vn 0.597012 0.638035 0.486301
v 0.265452 -0.03 0.266566
vn 0.63222 -0.625999 0.456533
v 0.265452 -0.015 0.266566
vn 0.645235 0.626002 0.437942
v 0.265335 -0.03 0.26675
vn 0.0438498 -0.998695 0.0261749
v 0.265335 -0.015 0.26675
vn 0.69189 0.610062 0.38615
v 0.265234 -0.03 0.266943
vn 0.837871 -0.365242 0.405673
v 0.265234 -0.015 0.266943
vn 0.0470549 0.998669 0.0211163
v 0.265151 -0.03 0.267145
vn 0.864477 -0.380057 0.328991
v 0.265151 -0.015 0.267145
vn 0.873694 0.380068 0.303657
v 0.265085 -0.03 0.267353
vn 0.885268 -0.391517 0.251028
v 0.265085 -0.015 0.267353
vn 0.892199 0.391503 0.225179
v 0.265038 -0.03 0.267566
vn 0.900338 -0.399635 0.172287
v 0.265038 -0.015 0.267566
vn 0.904973 0.399633 0.146003
v 0.26501 -0.03 0.267782
vn 0.909808 -0.404482 0.0929694
v 0.26501 -0.015 0.267782
vn 0.912121 0.404491 0.0664975
v 0.267 -0.015 0.28
vn -0.018265 0.574295 0.818445
v 0.267 -0.03 0.28
vn -0.0210536 -0.330988 0.9434
v 0.265954 -0.03 0.279954
vn -0.0920444 -0.424166 0.900895
v 0.264916 -0.03 0.279818
vn -0.170078 -0.425744 0.888716
v 0.263894 -0.03 0.279591
vn -0.246691 -0.427286 0.869811
v 0.262896 -0.03 0.279276
vn -0.321312 -0.428792 0.844331
v 0.261929 -0.03 0.278876
vn -0.39336 -0.430245 0.8125
v 0.261 -0.03 0.278392
vn -0.46234 -0.43164 0.77455
v 0.260117 -0.03 0.27783
vn -0.527723 -0.432955 0.730793
v 0.259287 -0.03 0.277193
vn -0.589014 -0.434199 0.681567
v 0.258515 -0.03 0.276485
vn -0.645781 -0.43534 0.627253
v 0.257807 -0.03 0.275713
vn -0.697594 -0.436395 0.568262
v 0.25717 -0.03 0.274883
vn -0.744088 -0.437336 0.505044
v 0.256608 -0.03 0.274
vn -0.784928 -0.438168 0.438061
v 0.256124 -0.03 0.273071
vn -0.819799 -0.438878 0.367853
v 0.255724 -0.03 0.272104
vn -0.848465 -0.439469 0.294913
v 0.255409 -0.03 0.271106
vn -0.870722 -0.43993 0.219785
v 0.255182 -0.03 0.270084
vn -0.886408 -0.440253 0.14303
v 0.255046 -0.03 0.269046
vn -0.895403 -0.440454 0.0652199
v 0.265954 -0.015 0.279954
vn -0.0668798 0.390451 0.918191
v 0.264916 -0.015 0.279818
vn -0.144152 0.425592 0.89336
v 0.263894 -0.015 0.279591
vn -0.221291 0.427143 0.876686
v 0.262896 -0.015 0.279276
vn -0.296625 0.428651 0.853389
v 0.261929 -0.015 0.278876
vn -0.369585 0.430111 0.823658
v 0.261 -0.015 0.278392
vn -0.439628 0.43151 0.787735
v 0.260117 -0.015 0.27783
vn -0.506264 0.432839 0.745886
v 0.259287 -0.015 0.277193
vn -0.568968 0.43408 0.698463
v 0.258515 -0.015 0.276485
vn -0.627285 0.435244 0.645814
v 0.257807 -0.015 0.275713
vn -0.680799 0.436295 0.588352
v 0.25717 -0.015 0.274883
vn -0.729109 0.437254 0.526507
v 0.256608 -0.015 0.274
vn -0.771875 0.438093 0.460743
v 0.256124 -0.015 0.273071
vn -0.808778 0.438816 0.391558
v 0.255724 -0.015 0.272104
vn -0.839546 0.439417 0.319491
v 0.255409 -0.015 0.271106
vn -0.863975 0.439892 0.245036
v 0.255182 -0.015 0.270084
vn -0.881879 0.440235 0.168769
v 0.255046 -0.015 0.269046
vn -0.893134 0.440436 0.0912515
f 1//1 2//2 3//3
f 2//2 4//4 3//3
f 1//1 3//3 5//5
f 3//3 6//6 5//5
f 4//4 2//2 7//7
f 2//2 8//8 7//7
f 9//9 10//10 11//11
f 9//9 11//11 12//12
f 11//11 13//13 12//12
f 12//12 13//13 14//14
f 13//13 15//15 14//14
f 14//14 15//15 16//16
f 15//15 17//17 16//16
f 16//16 17//17 18//18
f 17//17 19//19 18//18
f 18//18 19//19 20//20
f 19//19 21//21 20//20
f 20//20 21//21 22//22
f 21//21 23//23 22//22
f 22//22 23//23 24//24
f 23//23 25//25 24//24
f 24//24 25//25 26//26
f 25//25 27//27 26//26
f 26//26 27//27 28//28
f 27//27 29//29 28//28
f 28//28 29//29 30//30
f 29//29 31//31 30//30
f 30//30 31//31 32//32
f 31//31 33//33 32//32
f 32//32 33//33 34//34
f 33//33 35//35 34//34
f 34//34 35//35 36//36
f 35//35 37//37 36//36
f 36//36 37//37 38//38
f 37//37 39//39 38//38
f 38//38 39//39 40//40
f 39//39 41//41 40//40
f 40//40 41//41 42//42
f 41//41 43//43 42//42
f 42//42 43//43 44//44
f 43//43 5//5 44//44
f 44//44 5//5 6//6
f 45//45 46//46 47//47
f 46//46 48//48 47//47
f 47//47 48//48 49//49
f 48//48 50//50 49//49
f 49//49 50//50 51//51
f 50//50 52//52 51//51
f 51//51 52//52 53//53
f 52//52 54//54 53//53
f 53//53 54//54 55//55
f 54//54 56//56 55//55
f 55//55 56//56 57//57
f 56//56 58//58 57//57
f 57//57 58//58 59//59
f 58//58 60//60 59//59
f 59//59 60//60 61//61
f 60//60 62//62 61//61
f 61//61 62//62 63//63
f 62//62 64//64 63//63
f 63//63 64//64 65//65
f 64//64 66//66 65//65
f 65//65 66//66 67//67
f 66//66 68//68 67//67
f 67//67 68//68 69//69
f 68//68 70//70 69//69
f 69//69 70//70 71//71
f 70//70 72//72 71//71
f 71//71 72//72 73//73
f 72//72 74//74 73//73
f 73//73 74//74 75//75
f 74//74 76//76 75//75
f 75//75 76//76 77//77
f 76//76 78//78 77//77
f 77//77 78//78 79//79
f 78//78 80//80 79//79
f 79//79 80//80 81//81
f 80//80 82//82 81//81
f 81//81 82//82 83//83
f 82//82 84//84 83//83
f 83//83 84//84 85//85
f 84//84 86//86 85//85
f 85//85 86//86 87//87
f 86//86 88//88 87//87
f 87//87 88//88 89//89
f 88//88 90//90 89//89
f 89//89 90//90 91//91
f 90//90 92//92 91//91
f 91//91 92//92 93//93
f 92//92 94//94 93//93
f 93//93 94//94 95//95
f 94//94 96//96 95//95
f 95//95 96//96 97//97
f 96//96 98//98 97//97
f 97//97 98//98 99//99
f 98//98 100//100 99//99
f 99//99 100//100 101//101
f 100//100 102//102 101//101
f 101//101 102//102 103//103
f 102//102 104//104 103//103
f 103//103 104//104 105//105
f 104//104 106//106 105//105
f 105//105 106//106 107//107
f 106//106 108//108 107//107
f 107//107 108//108 109//109
f 108//108 110//110 109//109
f 109//109 110//110 111//111
f 110//110 112//112 111//111
f 111//111 112//112 113//113
f 112//112 114//114 113//113
f 113//113 114//114 115//115
f 114//114 116//116 115//115
f 115//115 116//116 117//117
f 116//116 118//118 117//117
f 117//117 118//118 119//119
f 118//118 120//120 119//119
f 119//119 120//120 121//121
f 120//120 122//122 121//121
f 121//121 122//122 123//123
f 122//122 124//124 123//123
f 123//123 124//124 125//125
f 124//124 126//126 125//125
f 125//125 126//126 127//127
f 126//126 128//128 127//127
f 127//127 128//128 129//129
f 128//128 130//130 129//129
f 129//129 130//130 131//131
f 130//130 132//132 131//131
f 131//131 132//132 133//133
f 132//132 134//134 133//133
f 133//133 134//134 135//135
f 134//134 136//136 135//135
f 135//135 136//136 137//137
f 136//136 138//138 137//137
f 137//137 138//138 139//139
f 138//138 140//140 139//139
f 139//139 140//140 141//141
f 140//140 142//142 141//141
f 141//141 142//142 143//143
f 142//142 144//144 143//143
f 143//143 144//144 145//145
f 144//144 146//146 145//145
f 145//145 146//146 147//147
f 146//146 148//148 147//147
f 147//147 148//148 149//149
f 148//148 150//150 149//149
f 149//149 150//150 151//151
f 150//150 152//152 151//151
f 151//151 152//152 153//153
f 152//152 154//154 153//153
f 153//153 154//154 155//155
f 154//154 156//156 155//155
f 155//155 156//156 157//157
f 156//156 158//158 157//157
f 157//157 158//158 159//159
f 158//158 160//160 159//159
f 159//159 160//160 161//161
f 160//160 162//162 161//161
f 161//161 162//162 163//163
f 162//162 164//164 163//163
f 163//163 164//164 165//165
f 164//164 166//166 165//165
f 165//165 166//166 167//167
f 166//166 168//168 167//167
f 167//167 168//168 169//169
f 168//168 170//170 169//169
f 169//169 170//170 171//171
f 170//170 172//172 171//171
f 171//171 172//172 173//173
f 172//172 174//174 173//173
f 173//173 174//174 175//175
f 174//174 176//176 175//175
f 175//175 176//176 177//177
f 176//176 178//178 177//177
f 177//177 178//178 179//179
f 178//178 180//180 179//179
f 179//179 180//180 181//181
f 180//180 182//182 181//181
f 181//181 182//182 183//183
f 182//182 184//184 183//183
f 183//183 184//184 185//185
f 184//184 186//186 185//185
f 185//185 186//186 187//187
f 186//186 188//188 187//187
f 187//187 188//188 45//45
f 188//188 46//46 45//45
f 189//189 190//190 9//9
f 190//190 10//10 9//9
f 1//1 153//153 2//2
f 153//153 155//155 2//2
f 181//181 183//183 8//8
f 183//183 185//185 8//8
f 145//145 147//147 1//1
f 117//117 119//119 5//5
f 119//119 121//121 5//5
f 5//5 121//121 123//123
f 155//155 157//157 2//2
f 157//157 159//159 2//2
f 2//2 159//159 161//161
f 167//167 169//169 2//2
f 169//169 171//171 2//2
f 2//2 171//171 173//173
f 173//173 175//175 2//2
f 175//175 177//177 2//2
f 2//2 177//177 8//8
f 177//177 179//179 8//8
f 8//8 179//179 181//181
f 145//145 1//1 143//143
f 147//147 149//149 1//1
f 149//149 151//151 1//1
f 1//1 151//151 153//153
f 161//161 163//163 2//2
f 163//163 165//165 2//2
f 2//2 165//165 167//167
f 131//131 133//133 1//1
f 133//133 135//135 1//1
f 1//1 135//135 137//137
f 137//137 139//139 1//1
f 139//139 141//141 1//1
f 1//1 141//141 143//143
f 83//83 10//10 81//81
f 10//10 190//190 81//81
f 81//81 190//190 79//79
f 190//190 191//191 79//79
f 79//79 191//191 77//77
f 191//191 192//192 77//77
f 77//77 192//192 75//75
f 192//192 193//193 75//75
f 75//75 193//193 73//73
f 193//193 194//194 73//73
f 73//73 194//194 71//71
f 194//194 195//195 71//71
f 71//71 195//195 69//69
f 195//195 196//196 69//69
f 69//69 196//196 67//67
f 196//196 197//197 67//67
f 67//67 197//197 65//65
f 197//197 198//198 65//65
f 65//65 198//198 63//63
f 198//198 199//199 63//63
f 63//63 199//199 61//61
f 199//199 200//200 61//61
f 61//61 200//200 59//59
f 200//200 201//201 59//59
f 59//59 201//201 57//57
f 201//201 202//202 57//57
f 57//57 202//202 55//55
f 202//202 203//203 55//55
f 55//55 203//203 53//53
f 203//203 204//204 53//53
f 53//53 204//204 51//51
f 204//204 205//205 51//51
f 51//51 205//205 49//49
f 205//205 206//206 49//49
f 49//49 206//206 47//47
f 206//206 207//207 47//47
f 47//47 207//207 45//45
f 207//207 8//8 45//45
f 45//45 8//8 187//187
f 8//8 185//185 187//187
f 117//117 5//5 115//115
f 5//5 43//43 115//115
f 115//115 43//43 113//113
f 43//43 41//41 113//113
f 113//113 41//41 111//111
f 41//41 39//39 111//111
f 111//111 39//39 109//109
f 39//39 37//37 109//109
f 109//109 37//37 107//107
f 37//37 35//35 107//107
f 107//107 35//35 105//105
f 35//35 33//33 105//105
f 105//105 33//33 103//103
f 33//33 31//31 103//103
f 103//103 31//31 101//101
f 31//31 29//29 101//101
f 101//101 29//29 99//99
f 29//29 27//27 99//99
f 99//99 27//27 97//97
f 27//27 25//25 97//97
f 97//97 25//25 95//95
f 25//25 23//23 95//95
f 95//95 23//23 93//93
f 23//23 21//21 93//93
f 93//93 21//21 91//91
f 21//21 19//19 91//91
f 91//91 19//19 89//89
f 19//19 17//17 89//89
f 89//89 17//17 87//87
f 17//17 15//15 87//87
f 87//87 15//15 85//85
f 15//15 13//13 85//85
f 85//85 13//13 83//83
f 13//13 11//11 83//83
f 83//83 11//11 10//10
f 123//123 125//125 5//5
f 125//125 127//127 5//5
f 5//5 127//127 1//1
f 127//127 129//129 1//1
f 1//1 129//129 131//131
f 190//190 189//189 208//208
f 190//190 208//208 191//191
f 208//208 209//209 191//191
f 191//191 209//209 192//192
f 209//209 210//210 192//192
f 192//192 210//210 193//193
f 210//210 211//211 193//193
f 193//193 211//211 194//194
f 211//211 212//212 194//194
f 194//194 212//212 195//195
f 212//212 213//213 195//195
f 195//195 213//213 196//196
f 213//213 214//214 196//196
f 196//196 214//214 197//197
f 214//214 215//215 197//197
f 197//197 215//215 198//198
f 215//215 216//216 198//198
f 198//198 216//216 199//199
f 216//216 217//217 199//199
f 199//199 217//217 200//200
f 217//217 218//218 200//200
f 200//200 218//218 201//201
f 218//218 219//219 201//201
f 201//201 219//219 202//202
f 219//219 220//220 202//202
f 202//202 220//220 203//203
f 220//220 221//221 203//203
f 203//203 221//221 204//204
f 221//221 222//222 204//204
f 204//204 222//222 205//205
f 222//222 223//223 205//205
f 205//205 223//223 206//206
f 223//223 224//224 206//206
f 206//206 224//224 207//207
f 224//224 7//7 207//207
f 207//207 7//7 8//8
f 46//46 188//188 7//7
f 188//188 186//186 7//7
f 7//7 186//186 184//184
f 160//160 158//158 4//4
f 158//158 156//156 4//4
f 4//4 156//156 3//3
f 156//156 154//154 3//3
f 3//3 154//154 152//152
f 152//152 150//150 3//3
f 150//150 148//148 3//3
f 3//3 148//148 146//146
f 126//126 124//124 6//6
f 124//124 122//122 6//6
f 146//146 144//144 3//3
f 144//144 142//142 3//3
f 3//3 142//142 140//140
f 178//178 4//4 180//180
f 4//4 7//7 180//180
f 180//180 7//7 182//182
f 7//7 184//184 182//182
f 178//178 176//176 4//4
f 176//176 174//174 4//4
f 4//4 174//174 172//172
f 140//140 138//138 3//3
f 138//138 136//136 3//3
f 3//3 136//136 134//134
f 172//172 170//170 4//4
f 170//170 168//168 4//4
f 4//4 168//168 166//166
f 46//46 7//7 48//48
f 7//7 224//224 48//48
f 48//48 224//224 50//50
f 224//224 223//223 50//50
f 50//50 223//223 52//52
f 223//223 222//222 52//52
f 52//52 222//222 54//54
f 222//222 221//221 54//54
f 54//54 221//221 56//56
f 221//221 220//220 56//56
f 56//56 220//220 58//58
f 220//220 219//219 58//58
f 58//58 219//219 60//60
f 219//219 218//218 60//60
f 60//60 218//218 62//62
f 218//218 217//217 62//62
f 62//62 217//217 64//64
f 217//217 216//216 64//64
f 64//64 216//216 66//66
f 216//216 215//215 66//66
f 66//66 215//215 68//68
f 215//215 214//214 68//68
f 68//68 214//214 70//70
f 214//214 213//213 70//70
f 70//70 213//213 72//72
f 213//213 212//212 72//72
f 72//72 212//212 74//74
f 212//212 211//211 74//74
f 74//74 211//211 76//76
f 211//211 210//210 76//76
f 76//76 210//210 78//78
f 210//210 209//209 78//78
f 78//78 209//209 80//80
f 166//166 164//164 4//4
f 164//164 162//162 4//4
f 4//4 162//162 160//160
f 134//134 132//132 3//3
f 132//132 130//130 3//3
f 3//3 130//130 6//6
f 130//130 128//128 6//6
f 6//6 128//128 126//126
f 209//209 208//208 80//80
f 208//208 189//189 80//80
f 80//80 189//189 82//82
f 189//189 9//9 82//82
f 82//82 9//9 84//84
f 9//9 12//12 84//84
f 84//84 12//12 86//86
f 12//12 14//14 86//86
f 86//86 14//14 88//88
f 14//14 16//16 88//88
f 88//88 16//16 90//90
f 16//16 18//18 90//90
f 90//90 18//18 92//92
f 18//18 20//20 92//92
f 92//92 20//20 94//94
f 20//20 22//22 94//94
f 94//94 22//22 96//96
f 22//22 24//24 96//96
f 96//96 24//24 98//98
f 24//24 26//26 98//98
f 98//98 26//26 100//100
f 26//26 28//28 100//100
f 100//100 28//28 102//102
f 28//28 30//30 102//102
f 102//102 30//30 104//104
f 30//30 32//32 104//104
f 104//104 32//32 106//106
f 32//32 34//34 106//106
f 106//106 34//34 108//108
f 34//34 36//36 108//108
f 108//108 36//36 110//110
f 36//36 38//38 110//110
f 110//110 38//38 112//112
f 38//38 40//40 112//112
f 112//112 40//40 114//114
f 40//40 42//42 114//114
f 114//114 42//42 116//116
f 42//42 44//44 116//116
f 116//116 44//44 118//118
f 44//44 6//6 118//118
f 118//118 6//6 120//120
f 6//6 122//122 120//120
