# Created by Open3D 
# object name: lock
# number of vertices: 146
# number of triangles: 288
v -0 -0.301302 0.0151139
vn 0.707068 -0.112646 -0.698115
v -0 -0.300654 0.0150285
vn 0.707072 -0.0513739 -0.705273
v 0 -0.3 0.0225
vn 1 0 0
v 0 -0.3 0.015
vn 0.707067 0.0102906 -0.707072
v 0 -0.299346 0.0150285
vn 0.707072 0.0718757 -0.703479
v -0 -0.30317 0.0157027
vn 0.70707 -0.289491 -0.645172
v -0 -0.302565 0.0154523
vn 0.707069 -0.232163 -0.667947
v -0 -0.301941 0.0152556
vn 0.707068 -0.173068 -0.68564
v -0 -0.304821 0.0167547
vn 0.707071 -0.446615 -0.548257
v -0 -0.304302 0.0163564
vn 0.707068 -0.397134 -0.585097
v -0 -0.30375 0.0160048
vn 0.707068 -0.344622 -0.617487
v -0 -0.306144 0.0181982
vn 0.707068 -0.573297 -0.413987
v -0 -0.305745 0.0176791
vn 0.70707 -0.535032 -0.462377
v -0 -0.305303 0.0171967
vn 0.707068 -0.492691 -0.507258
v -0 -0.307048 0.0199348
vn 0.707068 -0.660906 -0.251511
v -0 -0.306797 0.0193304
vn 0.70707 -0.636474 -0.308144
v -0 -0.306495 0.01875
vn 0.707068 -0.607198 -0.362444
v -0 -0.307471 0.0218463
vn 0.707069 -0.703483 -0.0718673
v -0 -0.307386 0.0211976
vn 0.707069 -0.694541 -0.132914
v -0 -0.307244 0.0205589
vn 0.707069 -0.680312 -0.192949
v -0 -0.307386 0.0238024
vn 0.70707 -0.698116 0.112637
v -0 -0.307471 0.0231537
vn 0.707068 -0.705277 0.0513752
v -0 -0.3075 0.0225
vn 0.707069 -0.70707 -0.0102943
v -0 -0.306797 0.0256696
vn 0.707067 -0.645172 0.289499
v -0 -0.307048 0.0250652
vn 0.707069 -0.667945 0.232169
v -0 -0.307244 0.0244411
vn 0.707069 -0.685638 0.17307
v -0 -0.305745 0.0273209
vn 0.707068 -0.548264 0.446612
v -0 -0.306144 0.0268018
vn 0.70707 -0.5851 0.397128
v -0 -0.306495 0.02625
vn 0.707069 -0.617488 0.344617
v -0 -0.304302 0.0286436
vn 0.70707 -0.413995 0.573289
v -0 -0.304821 0.0282453
vn 0.707067 -0.462377 0.535037
v -0 -0.305303 0.0278033
vn 0.707071 -0.507246 0.4927
v 0 -0.302565 0.0295477
vn 0.707069 -0.251504 0.660908
v -0 -0.30317 0.0292973
vn 0.707068 -0.308149 0.636474
v -0 -0.30375 0.0289952
vn 0.70707 -0.362447 0.607194
v 0 -0.300654 0.0299715
vn 0.707067 -0.0718749 0.703485
v 0 -0.301302 0.0298861
vn 0.70707 -0.132917 0.694539
v 0 -0.301941 0.0297444
vn 0.70707 -0.192939 0.680313
v 0 -0.298698 0.0298861
vn 0.707071 0.112649 0.698112
v 0 -0.299346 0.0299715
vn 0.707066 0.0513728 0.705279
v 0 -0.3 0.03
vn 0.707072 -0.0102903 0.707067
v 0 -0.29683 0.0292973
vn 0.707071 0.289497 0.645168
v 0 -0.297435 0.0295477
vn 0.707068 0.232153 0.667952
v 0 -0.298059 0.0297444
vn 0.707071 0.173061 0.685639
v 0 -0.295179 0.0282453
vn 0.707071 0.446615 0.548256
v 0 -0.295698 0.0286436
vn 0.707069 0.397134 0.585097
v 0 -0.29625 0.0289952
vn 0.707069 0.344623 0.617486
v 0 -0.293856 0.0268018
vn 0.707069 0.573296 0.413986
v 0 -0.294255 0.0273209
vn 0.707071 0.535032 0.462376
v 0 -0.294697 0.0278033
vn 0.707069 0.492691 0.507257
v 0 -0.292952 0.0250652
vn 0.70707 0.660905 0.25151
v 0 -0.293203 0.0256696
vn 0.707071 0.636473 0.308143
v 0 -0.293505 0.02625
vn 0.707069 0.607197 0.362443
v 0 -0.292529 0.0231537
vn 0.70707 0.70348 0.0718885
v 0 -0.292614 0.0238024
vn 0.70707 0.694542 0.132903
v 0 -0.292756 0.0244411
vn 0.707069 0.680314 0.192939
v 0 -0.292614 0.0211976
vn 0.707069 0.698115 -0.112647
v 0 -0.292529 0.0218463
vn 0.707069 0.705275 -0.0513856
v 0 -0.2925 0.0225
vn 0.707071 0.707068 0.0102943
v 0 -0.293203 0.0193304
vn 0.707068 0.645171 -0.289498
v 0 -0.292952 0.0199348
vn 0.707071 0.667944 -0.232169
v 0 -0.292756 0.0205589
vn 0.707071 0.685641 -0.173049
v 0 -0.294255 0.0176791
vn 0.707069 0.548263 -0.446611
v 0 -0.293856 0.0181982
vn 0.707071 0.585099 -0.397127
v 0 -0.293505 0.01875
vn 0.707071 0.617487 -0.344617
v 0 -0.295698 0.0163564
vn 0.707071 0.413995 -0.573288
v 0 -0.295179 0.0167547
vn 0.707067 0.462376 -0.535036
v 0 -0.294697 0.0171967
vn 0.707072 0.507245 -0.492699
v 0 -0.297435 0.0154523
vn 0.707072 0.251496 -0.660907
v 0 -0.29683 0.0157027
vn 0.707068 0.308145 -0.636475
v 0 -0.29625 0.0160048
vn 0.707071 0.362446 -0.607193
v 0 -0.298698 0.0151139
vn 0.707068 0.13292 -0.694541
v 0 -0.298059 0.0152556
vn 0.707068 0.192941 -0.680315
v -0.005 -0.292529 0.0231537
vn -0.70707 0.705274 0.0513857
v -0.005 -0.292614 0.0238024
vn -0.707069 0.698115 0.112647
v -0.005 -0.292756 0.0244411
vn -0.707071 0.685641 0.173049
v -0.005 -0.292952 0.0250652
vn -0.707071 0.667944 0.232169
v -0.005 -0.293203 0.0256696
vn -0.707068 0.645171 0.289498
v -0.005 -0.293505 0.02625
vn -0.707071 0.617487 0.344617
v -0.005 -0.293856 0.0268018
vn -0.707071 0.585099 0.397127
v -0.005 -0.294255 0.0273209
vn -0.707069 0.548263 0.446611
v -0.005 -0.294697 0.0278033
vn -0.707071 0.507245 0.492699
v -0.005 -0.295179 0.0282453
vn -0.707067 0.462376 0.535036
v -0.005 -0.295698 0.0286436
vn -0.707071 0.413995 0.573288
v -0.005 -0.29625 0.0289952
vn -0.707071 0.362446 0.607193
v -0.005 -0.29683 0.0292973
vn -0.707069 0.308149 0.636473
v -0.005 -0.297435 0.0295477
vn -0.707072 0.251499 0.660907
v -0.005 -0.298059 0.0297444
vn -0.707068 0.192934 0.680317
v -0.005 -0.298698 0.0298861
vn -0.707068 0.132919 0.694541
v -0.005 -0.299346 0.0299715
vn -0.707072 0.0718754 0.703479
v -0.005 -0.3 0.03
vn -0.707067 0.0102903 0.707072
v -0.005 -0.300654 0.0299715
vn -0.707072 -0.0513732 0.705273
v -0.005 -0.301302 0.0298861
vn -0.707068 -0.112646 0.698115
v -0.005 -0.301941 0.0297444
vn -0.707068 -0.173064 0.685641
v -0.005 -0.302565 0.0295477
vn -0.70707 -0.232159 0.667948
v -0.005 -0.30317 0.0292973
vn -0.70707 -0.289497 0.645169
v -0.005 -0.30375 0.0289952
vn -0.707068 -0.344623 0.617486
v -0.005 -0.304302 0.0286436
vn -0.707068 -0.397134 0.585097
v -0.005 -0.304821 0.0282453
vn -0.70707 -0.446615 0.548257
v -0.005 -0.305303 0.0278033
vn -0.707068 -0.492692 0.507258
v -0.005 -0.305745 0.0273209
vn -0.70707 -0.535032 0.462377
v -0.005 -0.306144 0.0268018
vn -0.707068 -0.573297 0.413987
v -0.005 -0.306495 0.02625
vn -0.707068 -0.607198 0.362444
v -0.005 -0.306797 0.0256696
vn -0.70707 -0.636474 0.308144
v -0.005 -0.307048 0.0250652
vn -0.707068 -0.660906 0.251511
v -0.005 -0.307244 0.0244411
vn -0.707069 -0.680312 0.192949
v -0.005 -0.307386 0.0238024
vn -0.707069 -0.694541 0.132914
v -0.005 -0.307471 0.0231537
vn -0.707069 -0.703483 0.0718673
v -0.005 -0.3075 0.0225
vn -0.707069 -0.707069 0.0102943
v -0.005 -0.307471 0.0218463
vn -0.707068 -0.705277 -0.0513751
v -0.005 -0.307386 0.0211976
vn -0.70707 -0.698116 -0.112637
v -0.005 -0.307244 0.0205589
vn -0.707069 -0.685638 -0.17307
v -0.005 -0.307048 0.0199348
vn -0.707069 -0.667945 -0.232169
v -0.005 -0.306797 0.0193304
vn -0.707067 -0.645172 -0.289499
v -0.005 -0.306495 0.01875
vn -0.707069 -0.617488 -0.344617
v -0.005 -0.306144 0.0181982
vn -0.70707 -0.5851 -0.397128
v -0.005 -0.305745 0.0176791
vn -0.707068 -0.548264 -0.446612
v -0.005 -0.305303 0.0171967
vn -0.707071 -0.507246 -0.4927
v -0.005 -0.304821 0.0167547
vn -0.707067 -0.462377 -0.535037
v -0.005 -0.304302 0.0163564
vn -0.70707 -0.413995 -0.573289
v -0.005 -0.30375 0.0160048
vn -0.70707 -0.362446 -0.607194
v -0.005 -0.30317 0.0157027
vn -0.707068 -0.308145 -0.636476
v -0.005 -0.302565 0.0154523
vn -0.707069 -0.251501 -0.660909
v -0.005 -0.301941 0.0152556
vn -0.70707 -0.192946 -0.680311
v -0.005 -0.301302 0.0151139
vn -0.70707 -0.132917 -0.694539
v -0.005 -0.300654 0.0150285
vn -0.707067 -0.0718752 -0.703484
v -0.005 -0.3 0.015
vn -0.707072 -0.0102907 -0.707067
v -0.005 -0.299346 0.0150285
vn -0.707067 0.0513735 -0.705278
v -0.005 -0.298698 0.0151139
vn -0.707071 0.112649 -0.698112
v -0.005 -0.298059 0.0152556
vn -0.707071 0.173065 -0.685638
v -0.005 -0.297435 0.0154523
vn -0.707067 0.232157 -0.667952
v -0.005 -0.29683 0.0157027
vn -0.707071 0.289491 -0.645171
v -0.005 -0.29625 0.0160048
vn -0.707069 0.344622 -0.617486
v -0.005 -0.295698 0.0163564
vn -0.707069 0.397134 -0.585097
v -0.005 -0.295179 0.0167547
vn -0.707071 0.446615 -0.548256
v -0.005 -0.294697 0.0171967
vn -0.707069 0.492691 -0.507257
v -0.005 -0.294255 0.0176791
vn -0.707071 0.535032 -0.462376
v -0.005 -0.293856 0.0181982
vn -0.707069 0.573296 -0.413986
v -0.005 -0.293505 0.01875
vn -0.707069 0.607197 -0.362443
v -0.005 -0.293203 0.0193304
vn -0.707071 0.636473 -0.308143
v -0.005 -0.292952 0.0199348
vn -0.70707 0.660905 -0.25151
v -0.005 -0.292756 0.0205589
vn -0.707069 0.680314 -0.192939
v -0.005 -0.292614 0.0211976
vn -0.70707 0.694542 -0.132903
v -0.005 -0.292529 0.0218463
vn -0.70707 0.70348 -0.0718884
v -0.005 -0.2925 0.0225
vn -0.70707 0.707068 -0.0102943
v -0.005 -0.3 0.0225
vn -1 0 0
f 1//1 2//2 3//3
f 2//2 4//4 3//3
f 3//3 4//4 5//5
f 6//6 7//7 3//3
f 7//7 8//8 3//3
f 3//3 8//8 1//1
f 9//9 10//10 3//3
f 10//10 11//11 3//3
f 3//3 11//11 6//6
f 12//12 13//13 3//3
f 13//13 14//14 3//3
f 3//3 14//14 9//9
f 15//15 16//16 3//3
f 16//16 17//17 3//3
f 3//3 17//17 12//12
f 18//18 19//19 3//3
f 19//19 20//20 3//3
f 3//3 20//20 15//15
f 21//21 22//22 3//3
f 22//22 23//23 3//3
f 3//3 23//23 18//18
f 24//24 25//25 3//3
f 25//25 26//26 3//3
f 3//3 26//26 21//21
f 27//27 28//28 3//3
f 28//28 29//29 3//3
f 3//3 29//29 24//24
f 30//30 31//31 3//3
f 31//31 32//32 3//3
f 3//3 32//32 27//27
f 33//33 34//34 3//3
f 34//34 35//35 3//3
f 3//3 35//35 30//30
f 36//36 37//37 3//3
f 37//37 38//38 3//3
f 3//3 38//38 33//33
f 39//39 40//40 3//3
f 40//40 41//41 3//3
f 3//3 41//41 36//36
f 42//42 43//43 3//3
f 43//43 44//44 3//3
f 3//3 44//44 39//39
f 45//45 46//46 3//3
f 46//46 47//47 3//3
f 3//3 47//47 42//42
f 48//48 49//49 3//3
f 49//49 50//50 3//3
f 3//3 50//50 45//45
f 51//51 52//52 3//3
f 52//52 53//53 3//3
f 3//3 53//53 48//48
f 54//54 55//55 3//3
f 55//55 56//56 3//3
f 3//3 56//56 51//51
f 57//57 58//58 3//3
f 58//58 59//59 3//3
f 3//3 59//59 54//54
f 60//60 61//61 3//3
f 61//61 62//62 3//3
f 3//3 62//62 57//57
f 63//63 64//64 3//3
f 64//64 65//65 3//3
f 3//3 65//65 60//60
f 66//66 67//67 3//3
f 67//67 68//68 3//3
f 3//3 68//68 63//63
f 69//69 70//70 3//3
f 70//70 71//71 3//3
f 3//3 71//71 66//66
f 5//5 72//72 3//3
f 72//72 73//73 3//3
f 3//3 73//73 69//69
f 59//59 74//74 54//54
f 74//74 75//75 54//54
f 54//54 75//75 55//55
f 75//75 76//76 55//55
f 55//55 76//76 56//56
f 76//76 77//77 56//56
f 56//56 77//77 51//51
f 77//77 78//78 51//51
f 51//51 78//78 52//52
f 78//78 79//79 52//52
f 52//52 79//79 53//53
f 79//79 80//80 53//53
f 53//53 80//80 48//48
f 80//80 81//81 48//48
f 48//48 81//81 49//49
f 81//81 82//82 49//49
f 49//49 82//82 50//50
f 82//82 83//83 50//50
f 50//50 83//83 45//45
f 83//83 84//84 45//45
f 45//45 84//84 46//46
f 84//84 85//85 46//46
f 46//46 85//85 47//47
f 85//85 86//86 47//47
f 47//47 86//86 42//42
f 86//86 87//87 42//42
f 42//42 87//87 43//43
f 87//87 88//88 43//43
f 43//43 88//88 44//44
f 88//88 89//89 44//44
f 44//44 89//89 39//39
f 89//89 90//90 39//39
f 39//39 90//90 40//40
f 90//90 91//91 40//40
f 40//40 91//91 41//41
f 91//91 92//92 41//41
f 41//41 92//92 36//36
f 92//92 93//93 36//36
f 36//36 93//93 37//37
f 93//93 94//94 37//37
f 37//37 94//94 38//38
f 94//94 95//95 38//38
f 38//38 95//95 33//33
f 95//95 96//96 33//33
f 33//33 96//96 34//34
f 96//96 97//97 34//34
f 34//34 97//97 35//35
f 97//97 98//98 35//35
f 35//35 98//98 30//30
f 98//98 99//99 30//30
f 30//30 99//99 31//31
f 99//99 100//100 31//31
f 31//31 100//100 32//32
f 100//100 101//101 32//32
f 32//32 101//101 27//27
f 101//101 102//102 27//27
f 27//27 102//102 28//28
f 102//102 103//103 28//28
f 28//28 103//103 29//29
f 103//103 104//104 29//29
f 29//29 104//104 24//24
f 104//104 105//105 24//24
f 24//24 105//105 25//25
f 105//105 106//106 25//25
f 25//25 106//106 26//26
f 106//106 107//107 26//26
f 26//26 107//107 21//21
f 107//107 108//108 21//21
f 21//21 108//108 22//22
f 108//108 109//109 22//22
f 22//22 109//109 23//23
f 109//109 110//110 23//23
f 23//23 110//110 18//18
f 110//110 111//111 18//18
f 18//18 111//111 19//19
f 111//111 112//112 19//19
f 19//19 112//112 20//20
f 112//112 113//113 20//20
f 20//20 113//113 15//15
f 113//113 114//114 15//15
f 15//15 114//114 16//16
f 114//114 115//115 16//16
f 16//16 115//115 17//17
f 115//115 116//116 17//17
f 17//17 116//116 12//12
f 116//116 117//117 12//12
f 12//12 117//117 13//13
f 117//117 118//118 13//13
f 13//13 118//118 14//14
f 118//118 119//119 14//14
f 14//14 119//119 9//9
f 119//119 120//120 9//9
f 9//9 120//120 10//10
f 120//120 121//121 10//10
f 10//10 121//121 11//11
f 121//121 122//122 11//11
f 11//11 122//122 6//6
f 122//122 123//123 6//6
f 6//6 123//123 7//7
f 123//123 124//124 7//7
f 7//7 124//124 8//8
f 124//124 125//125 8//8
f 8//8 125//125 1//1
f 125//125 126//126 1//1
f 1//1 126//126 2//2
f 126//126 127//127 2//2
f 2//2 127//127 4//4
f 127//127 128//128 4//4
f 4//4 128//128 5//5
f 128//128 129//129 5//5
f 5//5 129//129 72//72
f 129//129 130//130 72//72
f 72//72 130//130 73//73
f 130//130 131//131 73//73
f 73//73 131//131 69//69
f 131//131 132//132 69//69
f 69//69 132//132 70//70
f 132//132 133//133 70//70
f 70//70 133//133 71//71
f 133//133 134//134 71//71
f 71//71 134//134 66//66
f 134//134 135//135 66//66
f 66//66 135//135 67//67
f 135//135 136//136 67//67
f 67//67 136//136 68//68
f 136//136 137//137 68//68
f 68//68 137//137 63//63
f 137//137 138//138 63//63
f 63//63 138//138 64//64
f 138//138 139//139 64//64
f 64//64 139//139 65//65
f 139//139 140//140 65//65
f 65//65 140//140 60//60
f 140//140 141//141 60//60
f 60//60 141//141 61//61
f 141//141 142//142 61//61
f 61//61 142//142 62//62
f 142//142 143//143 62//62
f 62//62 143//143 57//57
f 143//143 144//144 57//57
f 57//57 144//144 58//58
f 144//144 145//145 58//58
f 58//58 145//145 59//59
f 145//145 74//74 59//59
f 93//93 92//92 146//146
f 92//92 91//91 146//146
f 146//146 91//91 90//90
f 96//96 95//95 146//146
f 95//95 94//94 146//146
f 146//146 94//94 93//93
f 99//99 98//98 146//146
f 98//98 97//97 146//146
f 146//146 97//97 96//96
f 102//102 101//101 146//146
f 101//101 100//100 146//146
f 146//146 100//100 99//99
f 105//105 104//104 146//146
f 104//104 103//103 146//146
f 146//146 103//103 102//102
f 108//108 107//107 146//146
f 107//107 106//106 146//146
f 146//146 106//106 105//105
f 111//111 110//110 146//146
f 110//110 109//109 146//146
f 146//146 109//109 108//108
f 114//114 113//113 146//146
f 113//113 112//112 146//146
f 146//146 112//112 111//111
f 117//117 116//116 146//146
f 116//116 115//115 146//146
f 146//146 115//115 114//114
f 120//120 119//119 146//146
f 119//119 118//118 146//146
f 146//146 118//118 117//117
f 123//123 122//122 146//146
f 122//122 121//121 146//146
f 146//146 121//121 120//120
f 126//126 125//125 146//146
f 125//125 124//124 146//146
f 146//146 124//124 123//123
f 129//129 128//128 146//146
f 128//128 127//127 146//146
f 146//146 127//127 126//126
f 132//132 131//131 146//146
f 131//131 130//130 146//146
f 146//146 130//130 129//129
f 135//135 134//134 146//146
f 134//134 133//133 146//146
f 146//146 133//133 132//132
f 138//138 137//137 146//146
f 137//137 136//136 146//146
f 146//146 136//136 135//135
f 141//141 140//140 146//146
f 140//140 139//139 146//146
f 146//146 139//139 138//138
f 144//144 143//143 146//146
f 143//143 142//142 146//146
f 146//146 142//142 141//141
f 75//75 74//74 146//146
f 74//74 145//145 146//146
f 146//146 145//145 144//144
f 78//78 77//77 146//146
f 77//77 76//76 146//146
f 146//146 76//76 75//75
f 81//81 80//80 146//146
f 80//80 79//79 146//146
f 146//146 79//79 78//78
f 84//84 83//83 146//146
f 83//83 82//82 146//146
f 146//146 82//82 81//81
f 87//87 86//86 146//146
f 86//86 85//85 146//146
f 146//146 85//85 84//84
f 90//90 89//89 146//146
f 89//89 88//88 146//146
f 146//146 88//88 87//87
