# Created by Open3D 
# object name: small_drawer_pull
# number of vertices: 8
# number of triangles: 12
v 0.275 0 0
vn -0.447071 -0.0253058 0.894141
v 0.275 0.176667 0
vn -0.893283 0.0505631 0.446641
v 0.275 0 -0.01
vn -0.893283 -0.0505631 -0.446641
v 0.275 0.176667 -0.01
vn -0.447071 0.0253058 -0.894141
v 0.285 0.176667 0
vn 0.447071 0.0253058 0.894141
v 0.285 0 0
vn 0.893283 -0.0505631 0.446641
v 0.285 0.176667 -0.01
vn 0.893283 0.0505631 -0.446641
v 0.285 0 -0.01
vn 0.447071 -0.0253058 -0.894141
f 1//1 2//2 3//3
f 2//2 4//4 3//3
f 5//5 6//6 7//7
f 6//6 8//8 7//7
f 7//7 8//8 4//4
f 8//8 3//3 4//4
f 5//5 7//7 2//2
f 7//7 4//4 2//2
f 8//8 6//6 3//3
f 6//6 1//1 3//3
f 6//6 5//5 1//1
f 5//5 2//2 1//1
